<?xml version="1.0" encoding="utf-8"?>
<!-- Generator: Adobe Illustrator 27.6.1, SVG Export Plug-In . SVG Version: 6.00 Build 0)  -->
<svg version="1.1" id="Layer_1" xmlns="http://www.w3.org/2000/svg" xmlns:xlink="http://www.w3.org/1999/xlink" x="0px" y="0px"
	 viewBox="0 0 37.1 14.2" style="enable-background:new 0 0 37.1 14.2;" xml:space="preserve">
<style type="text/css">
	.st0{opacity:0.85;fill:#5EDB35;}
	.st1{opacity:0.85;}
	.st2{fill:#C5EA3F;}
	.st3{fill:#11272B;}
</style>
<g>
	<path class="st0" d="M9.6,10.9c0.8,0,1.5-0.7,1.3-1.5c-0.1-0.5-0.2-1-0.4-1.5C10.2,7,9.6,6.1,8.9,5.4C8.3,4.7,7.4,4.1,6.5,3.7
		C6.1,3.5,5.6,3.4,5.1,3.3C4.3,3.1,3.7,3.8,3.7,4.6v4.8c0,0.8,0.7,1.5,1.5,1.5H9.6z"/>
	<g class="st1">
		<path class="st2" d="M7.7,10.9c-0.8,0-1.5-0.7-1.3-1.5c0.1-0.5,0.2-1,0.4-1.5C7.2,7,7.7,6.1,8.4,5.4c0.7-0.7,1.5-1.3,2.4-1.7
			c0.4-0.2,0.9-0.3,1.4-0.4c0.8-0.2,1.5,0.5,1.5,1.3v4.8c0,0.8-0.7,1.5-1.5,1.5H7.7z"/>
	</g>
	<g>
		<path class="st3" d="M20.2,4.1l-0.9,2.5h-0.9l-0.9-2.5h0.7l0.6,1.8l0.6-1.8H20.2z"/>
		<path class="st3" d="M22.3,5.8H21c0,0.1,0,0.2,0.1,0.2c0.1,0.1,0.1,0.1,0.2,0.1c0.1,0,0.2-0.1,0.3-0.2h0.7c0,0.1-0.1,0.3-0.2,0.4
			c-0.1,0.1-0.2,0.2-0.3,0.3c-0.1,0.1-0.3,0.1-0.4,0.1c-0.2,0-0.4,0-0.5-0.1c-0.2-0.1-0.3-0.2-0.4-0.4c-0.1-0.2-0.1-0.3-0.1-0.5
			c0-0.2,0-0.4,0.1-0.5c0.1-0.2,0.2-0.3,0.4-0.4c0.2-0.1,0.3-0.1,0.5-0.1c0.2,0,0.4,0,0.5,0.1c0.2,0.1,0.3,0.2,0.4,0.3
			c0.1,0.2,0.1,0.3,0.1,0.5C22.3,5.6,22.3,5.7,22.3,5.8z M21.6,5.4c0-0.1,0-0.2-0.1-0.2c-0.1,0-0.1-0.1-0.2-0.1
			c-0.1,0-0.2,0-0.2,0.1C21,5.3,21,5.3,21,5.4H21.6z"/>
		<path class="st3" d="M23.7,4.7c0.1,0.1,0.2,0.1,0.2,0.2V4.6h0.7v2c0,0.2,0,0.4-0.1,0.5c-0.1,0.2-0.2,0.3-0.3,0.4
			c-0.2,0.1-0.3,0.1-0.6,0.1c-0.3,0-0.6-0.1-0.7-0.2c-0.2-0.1-0.3-0.3-0.3-0.6h0.7c0,0.1,0,0.1,0.1,0.1C23.4,7,23.5,7,23.6,7
			c0.2,0,0.4-0.1,0.4-0.4V6.3c-0.1,0.1-0.1,0.2-0.2,0.2c-0.1,0.1-0.2,0.1-0.4,0.1c-0.2,0-0.3,0-0.4-0.1c-0.1-0.1-0.2-0.2-0.3-0.4
			c-0.1-0.2-0.1-0.3-0.1-0.5c0-0.2,0-0.4,0.1-0.5c0.1-0.2,0.2-0.3,0.3-0.4c0.1-0.1,0.3-0.1,0.4-0.1C23.5,4.6,23.6,4.6,23.7,4.7z
			 M23.8,5.3c-0.1-0.1-0.2-0.1-0.3-0.1c-0.1,0-0.2,0-0.3,0.1c-0.1,0.1-0.1,0.2-0.1,0.3c0,0.1,0,0.2,0.1,0.3C23.4,6,23.5,6,23.6,6
			c0.1,0,0.2,0,0.3-0.1c0.1-0.1,0.1-0.2,0.1-0.3C23.9,5.5,23.9,5.4,23.8,5.3z"/>
		<path class="st3" d="M25.1,4.3C25,4.3,25,4.2,25,4.1c0-0.1,0-0.2,0.1-0.3c0.1-0.1,0.2-0.1,0.3-0.1c0.1,0,0.2,0,0.3,0.1
			c0.1,0.1,0.1,0.2,0.1,0.3c0,0.1,0,0.2-0.1,0.3c-0.1,0.1-0.2,0.1-0.3,0.1C25.3,4.4,25.2,4.4,25.1,4.3z M25.7,4.6v2H25v-2H25.7z"/>
		<path class="st3" d="M28,5.8h-1.3c0,0.1,0,0.2,0.1,0.2c0.1,0.1,0.1,0.1,0.2,0.1c0.1,0,0.2-0.1,0.3-0.2H28c0,0.1-0.1,0.3-0.2,0.4
			c-0.1,0.1-0.2,0.2-0.3,0.3c-0.1,0.1-0.3,0.1-0.4,0.1c-0.2,0-0.4,0-0.5-0.1c-0.2-0.1-0.3-0.2-0.4-0.4C26.1,6,26,5.8,26,5.6
			c0-0.2,0-0.4,0.1-0.5c0.1-0.2,0.2-0.3,0.4-0.4c0.2-0.1,0.3-0.1,0.5-0.1c0.2,0,0.4,0,0.5,0.1c0.2,0.1,0.3,0.2,0.4,0.3
			C28,5.2,28,5.4,28,5.6C28,5.6,28,5.7,28,5.8z M27.3,5.4c0-0.1,0-0.2-0.1-0.2c-0.1,0-0.1-0.1-0.2-0.1c-0.1,0-0.2,0-0.2,0.1
			c-0.1,0-0.1,0.1-0.1,0.2H27.3z"/>
		<path class="st3" d="M28.7,6.5c-0.1-0.1-0.3-0.1-0.3-0.2c-0.1-0.1-0.1-0.2-0.1-0.4h0.7c0,0.1,0,0.1,0.1,0.1s0.1,0.1,0.2,0.1
			c0.1,0,0.1,0,0.1,0c0,0,0-0.1,0-0.1c0,0,0-0.1-0.1-0.1c-0.1,0-0.1,0-0.3-0.1c-0.1,0-0.3-0.1-0.4-0.1c-0.1,0-0.2-0.1-0.2-0.2
			c-0.1-0.1-0.1-0.2-0.1-0.3c0-0.1,0-0.2,0.1-0.3c0.1-0.1,0.2-0.2,0.3-0.2c0.1-0.1,0.3-0.1,0.5-0.1c0.3,0,0.5,0.1,0.6,0.2
			C29.9,4.9,30,5.1,30,5.3h-0.6c0-0.1,0-0.1-0.1-0.1s-0.1-0.1-0.2-0.1c-0.1,0-0.1,0-0.1,0c0,0,0,0.1,0,0.1c0,0,0,0.1,0.1,0.1
			c0.1,0,0.1,0.1,0.3,0.1c0.1,0,0.3,0.1,0.4,0.1c0.1,0,0.2,0.1,0.3,0.2C30,5.8,30,5.9,30,6c0,0.1,0,0.2-0.1,0.3
			c-0.1,0.1-0.2,0.2-0.3,0.2c-0.1,0.1-0.3,0.1-0.4,0.1C29,6.6,28.8,6.6,28.7,6.5z"/>
		<path class="st3" d="M19.7,10.2L19.4,10c-0.2,0.2-0.5,0.2-0.8,0.2c-0.2,0-0.4,0-0.5-0.1c-0.1-0.1-0.3-0.2-0.3-0.3
			c-0.1-0.1-0.1-0.3-0.1-0.4c0-0.2,0-0.3,0.1-0.4c0.1-0.1,0.2-0.2,0.4-0.3C18.1,8.7,18,8.6,18,8.5c0-0.1,0-0.1,0-0.2
			c0-0.1,0-0.2,0.1-0.3c0.1-0.1,0.2-0.2,0.3-0.2c0.1-0.1,0.3-0.1,0.4-0.1c0.2,0,0.3,0,0.4,0.1c0.1,0.1,0.2,0.1,0.3,0.2
			c0.1,0.1,0.1,0.2,0.1,0.3H19c0-0.1,0-0.1,0-0.1c0,0-0.1,0-0.1,0c0,0-0.1,0-0.1,0c0,0,0,0.1,0,0.1c0,0.1,0.1,0.2,0.2,0.3l0.6,0.6
			c0,0,0-0.1,0.1-0.2l0.1-0.1h0.7l-0.1,0.2c-0.1,0.2-0.2,0.4-0.3,0.5l0.6,0.6H19.7z M19,9.6l-0.5-0.5c-0.1,0-0.1,0.1-0.1,0.1
			c0,0,0,0.1,0,0.2c0,0.1,0,0.1,0.1,0.2c0.1,0.1,0.1,0.1,0.3,0.1C18.8,9.7,18.9,9.6,19,9.6z"/>
		<path class="st3" d="M22.2,8.5c0-0.1-0.1-0.1-0.2-0.2c-0.1,0-0.2-0.1-0.2-0.1c-0.2,0-0.3,0.1-0.4,0.2c-0.1,0.1-0.2,0.3-0.2,0.5
			c0,0.2,0.1,0.4,0.2,0.5c0.1,0.1,0.3,0.2,0.5,0.2c0.2,0,0.4-0.1,0.5-0.3h-0.7V8.7H23v0.7c-0.1,0.1-0.1,0.3-0.2,0.4
			c-0.1,0.1-0.2,0.2-0.4,0.3c-0.2,0.1-0.3,0.1-0.6,0.1c-0.3,0-0.5-0.1-0.7-0.2c-0.2-0.1-0.3-0.3-0.4-0.5s-0.2-0.4-0.2-0.7
			c0-0.2,0.1-0.5,0.2-0.7c0.1-0.2,0.3-0.3,0.4-0.5c0.2-0.1,0.4-0.2,0.7-0.2c0.3,0,0.6,0.1,0.8,0.2C22.8,8,23,8.2,23,8.5H22.2z"/>
		<path class="st3" d="M24.3,8.3c0.1-0.1,0.2-0.1,0.4-0.1v0.7h-0.2c-0.2,0-0.3,0-0.3,0.1C24.1,9.1,24,9.2,24,9.3v0.9h-0.7v-2H24v0.4
			C24.1,8.4,24.2,8.3,24.3,8.3z"/>
		<path class="st3" d="M26.8,9.3h-1.3c0,0.1,0,0.2,0.1,0.2c0.1,0.1,0.1,0.1,0.2,0.1c0.1,0,0.2-0.1,0.3-0.2h0.7
			c0,0.1-0.1,0.3-0.2,0.4c-0.1,0.1-0.2,0.2-0.3,0.3c-0.1,0.1-0.3,0.1-0.4,0.1c-0.2,0-0.4,0-0.5-0.1C25.2,10,25,9.9,25,9.7
			c-0.1-0.2-0.1-0.3-0.1-0.5c0-0.2,0-0.4,0.1-0.5c0.1-0.2,0.2-0.3,0.4-0.4c0.2-0.1,0.3-0.1,0.5-0.1c0.2,0,0.4,0,0.5,0.1
			c0.2,0.1,0.3,0.2,0.4,0.3c0.1,0.2,0.1,0.3,0.1,0.5C26.9,9.2,26.9,9.3,26.8,9.3z M26.1,9c0-0.1,0-0.2-0.1-0.2
			c-0.1,0-0.1-0.1-0.2-0.1c-0.1,0-0.2,0-0.2,0.1c-0.1,0-0.1,0.1-0.1,0.2H26.1z"/>
		<path class="st3" d="M29,9.3h-1.3c0,0.1,0,0.2,0.1,0.2c0.1,0.1,0.1,0.1,0.2,0.1c0.1,0,0.2-0.1,0.3-0.2H29c0,0.1-0.1,0.3-0.2,0.4
			c-0.1,0.1-0.2,0.2-0.3,0.3c-0.1,0.1-0.3,0.1-0.4,0.1c-0.2,0-0.4,0-0.5-0.1s-0.3-0.2-0.4-0.4C27.1,9.6,27,9.4,27,9.2
			c0-0.2,0-0.4,0.1-0.5c0.1-0.2,0.2-0.3,0.4-0.4c0.2-0.1,0.3-0.1,0.5-0.1c0.2,0,0.4,0,0.5,0.1c0.2,0.1,0.3,0.2,0.4,0.3
			C29,8.8,29.1,9,29.1,9.2C29.1,9.2,29.1,9.3,29,9.3z M28.3,9c0-0.1,0-0.2-0.1-0.2c-0.1,0-0.1-0.1-0.2-0.1c-0.1,0-0.2,0-0.2,0.1
			c-0.1,0-0.1,0.1-0.1,0.2H28.3z"/>
		<path class="st3" d="M31.2,8.4c0.1,0.2,0.2,0.4,0.2,0.6v1.2h-0.7V9.1c0-0.1,0-0.2-0.1-0.3c-0.1-0.1-0.1-0.1-0.2-0.1
			c-0.1,0-0.2,0-0.2,0.1C30.1,8.9,30,9,30,9.1v1.1h-0.7v-2H30v0.3c0.1-0.1,0.1-0.2,0.2-0.2c0.1-0.1,0.2-0.1,0.4-0.1
			C30.9,8.2,31.1,8.2,31.2,8.4z"/>
		<path class="st3" d="M32.2,10.1c-0.1-0.1-0.3-0.1-0.3-0.2c-0.1-0.1-0.1-0.2-0.1-0.4h0.7c0,0.1,0,0.1,0.1,0.1c0,0,0.1,0.1,0.2,0.1
			c0.1,0,0.1,0,0.1,0c0,0,0-0.1,0-0.1c0,0,0-0.1-0.1-0.1c-0.1,0-0.1,0-0.3-0.1c-0.1,0-0.3-0.1-0.4-0.1c-0.1,0-0.2-0.1-0.2-0.2
			c-0.1-0.1-0.1-0.2-0.1-0.3c0-0.1,0-0.2,0.1-0.3c0.1-0.1,0.2-0.2,0.3-0.2c0.1-0.1,0.3-0.1,0.5-0.1c0.3,0,0.5,0.1,0.6,0.2
			c0.1,0.1,0.2,0.3,0.3,0.5h-0.6c0-0.1,0-0.1-0.1-0.1c0,0-0.1-0.1-0.2-0.1c-0.1,0-0.1,0-0.1,0c0,0,0,0.1,0,0.1c0,0,0,0.1,0.1,0.1
			c0.1,0,0.1,0.1,0.3,0.1C32.9,9,33,9,33.1,9.1s0.2,0.1,0.3,0.2c0.1,0.1,0.1,0.2,0.1,0.3c0,0.1,0,0.2-0.1,0.3
			c-0.1,0.1-0.2,0.2-0.3,0.2c-0.1,0.1-0.3,0.1-0.4,0.1C32.5,10.2,32.3,10.2,32.2,10.1z"/>
	</g>
</g>
</svg>
